<svg xmlns="http://www.w3.org/2000/svg" viewBox="0 0 512 498.86"><defs><style>.cls-1{fill:#57565c;}.cls-2{fill:#3e3d42;}.cls-3{fill:#c6c5ca;}.cls-4{fill:#cd2a00;}.cls-5{fill:#acabb1;}.cls-6{fill:#aa2300;}.cls-7{fill:#891c00;}</style></defs><title>Element 1</title><g id="Ebene_2" data-name="Ebene 2"><g id="Layer_1" data-name="Layer 1"><path class="cls-1" d="M309.46,482H202.54a15.61,15.61,0,0,1-15.61-15.61V15.62A15.61,15.61,0,0,1,202.54,0H309.46a15.61,15.61,0,0,1,15.61,15.61V466.4A15.61,15.61,0,0,1,309.46,482Z"/><path class="cls-2" d="M309.46,0H256V482h53.46a15.61,15.61,0,0,0,15.61-15.61V15.62A15.61,15.61,0,0,0,309.46,0Z"/><path class="cls-3" d="M415.76,465.17H96.24a16.85,16.85,0,1,0,0,33.7H415.76a16.85,16.85,0,0,0,0-33.7Z"/><path class="cls-3" d="M457.32,257.86A16.85,16.85,0,0,1,440.47,241V148.33a25.66,25.66,0,0,0-25.63-25.63H97.16a25.66,25.66,0,0,0-25.63,25.63V241a16.85,16.85,0,0,1-33.7,0V148.33A59.39,59.39,0,0,1,97.16,89H414.84a59.39,59.39,0,0,1,59.32,59.32V241A16.85,16.85,0,0,1,457.32,257.86Z"/><path class="cls-4" d="M92.51,146.76H16.85A16.85,16.85,0,0,0,0,163.6V296.5a16.85,16.85,0,0,0,16.85,16.85H92.51a16.85,16.85,0,0,0,16.85-16.85V163.6A16.85,16.85,0,0,0,92.51,146.76Z"/><path class="cls-5" d="M415.76,465.17H256v33.7H415.76a16.85,16.85,0,1,0,0-33.7Z"/><path class="cls-5" d="M414.84,89H256V122.7H414.84a25.66,25.66,0,0,1,25.63,25.63V241a16.85,16.85,0,1,0,33.7,0V148.33A59.39,59.39,0,0,0,414.84,89Z"/><path class="cls-6" d="M495.15,146.76H419.49a16.85,16.85,0,0,0-16.85,16.85V296.5a16.85,16.85,0,0,0,16.85,16.85h75.67A16.85,16.85,0,0,0,512,296.5V163.6A16.85,16.85,0,0,0,495.15,146.76Z"/><rect class="cls-2" x="186.93" y="122.7" width="137.7" height="26.42"/><rect class="cls-2" x="186.93" y="390" width="137.7" height="26.42"/><path class="cls-3" d="M384.59,390H127.41a16.85,16.85,0,1,1,0-33.7H384.59a16.85,16.85,0,0,1,0,33.7Z"/><path class="cls-5" d="M384.59,356.31H256V390H384.59a16.85,16.85,0,1,0,0-33.7Z"/><rect class="cls-6" y="266.32" width="109.36" height="19.45"/><rect class="cls-7" x="402.64" y="266.32" width="109.36" height="19.45"/></g></g></svg>