<svg xmlns="http://www.w3.org/2000/svg" viewBox="0 0 43 54.82"><defs><style>.cls-1{fill:#436b1c;}.cls-2{fill:#88c057;}.cls-3{fill:#eeaf4b;}.cls-4{fill:#ed3f32;}.cls-5{fill:#a46f3e;}.cls-6{fill:#dae7ef;}.cls-7{fill:#fff;}.cls-8{fill:#fbd490;}.cls-9{fill:#e0b877;}</style></defs><title>Element 1</title><g id="Ebene_2" data-name="Ebene 2"><g id="Capa_1" data-name="Capa 1"><path class="cls-1" d="M5.31,19.91a1,1,0,0,1-.85-.48c-.61-1-1.76-2.15-3.08-2.1a1,1,0,0,1-1-1,1,1,0,0,1,1-1c2.11-.06,3.9,1.53,4.84,3.06a1,1,0,0,1-.85,1.52Z"/><path class="cls-2" d="M25.77,6.6A3.75,3.75,0,0,0,22,3.11h0a2.32,2.32,0,0,0-.08-.93,2.44,2.44,0,0,0-2-1.73,2.4,2.4,0,0,0-2,.68,2.67,2.67,0,0,0-4.46,2h0A3.47,3.47,0,0,0,10.36,7.4a4,4,0,0,0-3.31,6,2.93,2.93,0,0,0-.16,4.4c2.41-2,4.95,4.62,7.93,9.88,1,1.75,11.7-.11,12.55,1,1-.87,1.6-16.09,1.63-17.43A4.82,4.82,0,0,0,25.77,6.6Z"/><path class="cls-3" d="M27.14,26.53l.71-.43a4.16,4.16,0,0,1,4.29,0l.71.43a4.16,4.16,0,0,0,4.29,0l2-.9c.3-.83.5-1.42.58-1.69A69.75,69.75,0,0,0,43,5.18c.07-2.55-2-6.54-5.56-4.73s-5.92,8.6-7.65,11.84A70.54,70.54,0,0,0,24,27,4.16,4.16,0,0,0,27.14,26.53Z"/><path class="cls-4" d="M1.14,25.51l1.34.81a4.88,4.88,0,0,0,5,0l.35-.21a4.16,4.16,0,0,1,4.29,0l.71.43a4.16,4.16,0,0,0,2.53.57,8.63,8.63,0,0,0-.57-6.4C11.48,14.82,8.71,16,6,18.57a4.37,4.37,0,0,1-1.82,1c-2.93.84-5.09,2.21-3.86,5.93A.7.7,0,0,1,1.14,25.51Z"/><path class="cls-5" d="M29.68,24.36A1,1,0,0,1,28.74,23a3.77,3.77,0,0,1,4.77-2.35,1.76,1.76,0,0,0,2.23-1.1,1,1,0,1,1,1.89.64,3.76,3.76,0,0,1-4.77,2.35,1.76,1.76,0,0,0-2.23,1.1A1,1,0,0,1,29.68,24.36Z"/><path class="cls-5" d="M32,17.39a1,1,0,0,1-.95-1.32,3.76,3.76,0,0,1,4.77-2.35,1.76,1.76,0,0,0,2.23-1.1,1,1,0,1,1,1.89.64,3.77,3.77,0,0,1-4.77,2.35A1.76,1.76,0,0,0,33,16.71,1,1,0,0,1,32,17.39Z"/><path class="cls-5" d="M34.41,10.42a1,1,0,0,1-.32-.05,1,1,0,0,1-.62-1.27A3.31,3.31,0,0,1,37.65,7a1.3,1.3,0,0,0,1.65-.81,1,1,0,1,1,1.89.64A3.3,3.3,0,0,1,37,8.93a1.3,1.3,0,0,0-1.65.81A1,1,0,0,1,34.41,10.42Z"/><path class="cls-6" d="M17.46,14.1c-.94,1.26-2.44,2.74-1.86,5.37l1.54,7.07h0l.71-.43a4.16,4.16,0,0,1,4.29,0l.71.43A4.08,4.08,0,0,0,24,27,72.06,72.06,0,0,1,28,15.82c-.77-1.94-2.43-2.58-3.63-3.25h0a1.39,1.39,0,0,1-.24-2.14,1.13,1.13,0,0,0,.25-1l-.12-.55A1.13,1.13,0,0,0,22.94,8L16.86,9.35A1.13,1.13,0,0,0,16,10.7l.12.55a1.12,1.12,0,0,0,.66.79,1.38,1.38,0,0,1,.81,1.86A1.55,1.55,0,0,1,17.46,14.1Z"/><path class="cls-7" d="M23.84,10.9,17,12.4a1.42,1.42,0,0,1-1.68-1.08l-.1-.45a1.42,1.42,0,0,1,1.08-1.68l6.88-1.5a1.42,1.42,0,0,1,1.68,1.08l.1.45A1.42,1.42,0,0,1,23.84,10.9Z"/><path class="cls-8" d="M40.91,25.33l-1.74,25a4.7,4.7,0,0,1-4.69,4.46H6.4A4.7,4.7,0,0,1,1.7,50.36L0,26.15a.71.71,0,0,1,1.08-.65l1.35.81a4.88,4.88,0,0,0,5,0l.35-.21a4.16,4.16,0,0,1,4.29,0l.71.43a4.16,4.16,0,0,0,4.29,0l.71-.43a4.16,4.16,0,0,1,4.29,0l.71.43a4.16,4.16,0,0,0,4.29,0l.71-.43a4.16,4.16,0,0,1,4.29,0l.71.43a4.16,4.16,0,0,0,4.29,0L40.46,25A.31.31,0,0,1,40.91,25.33Z"/><path class="cls-9" d="M12,42H5a1,1,0,1,1,0-2h7a1,1,0,0,1,0,2Z"/><path class="cls-9" d="M14,46H5a1,1,0,1,1,0-2h9a1,1,0,0,1,0,2Z"/><path class="cls-9" d="M16,50H5a1,1,0,1,1,0-2H16a1,1,0,0,1,0,2Z"/><path class="cls-9" d="M22,50H20a1,1,0,1,1,0-2h2a1,1,0,0,1,0,2Z"/></g></g></svg>