<svg xmlns="http://www.w3.org/2000/svg" viewBox="0 0 512 511.54"><defs><style>.cls-1{fill:#ffd9b3;}.cls-2{fill:#ffc080;}.cls-3{fill:#e6563a;}.cls-4{fill:#d9472b;}.cls-5{fill:#57d4d4;}.cls-6{fill:#4dbfbf;}</style></defs><title>Element 1</title><g id="Ebene_2" data-name="Ebene 2"><g id="Layer_1" data-name="Layer 1"><path class="cls-1" d="M28.26,500.42a16.68,16.68,0,0,1-11.79-28.48l90.83-90.83a16.68,16.68,0,1,1,23.59,23.59L40.05,495.54A16.63,16.63,0,0,1,28.26,500.42Z"/><path class="cls-2" d="M28.26,500.42A16.62,16.62,0,0,0,40,495.54l90.83-90.83a16.67,16.67,0,0,0,0-23.59L16.46,495.54A16.62,16.62,0,0,0,28.26,500.42Z"/><path class="cls-3" d="M360.44,152.81A104.24,104.24,0,0,0,292.6,128c-47.83,0-76.35,30.25-92,56-15.62-25.79-44.15-56-92-56C47.73,128,0,179.09,0,244.37c0,62.1,43.74,105.92,107.28,160.35,7.91,6.8,16.14,13.73,24.62,20.91,18.14,15.25,37,31,57.82,49a16.69,16.69,0,0,0,21.82,0c17.63-15.26,34.34-29.3,50-42.45,84.13-70.68,139.71-117.37,139.71-187.82C401.25,206.82,385.46,173.95,360.44,152.81Z"/><path class="cls-4" d="M401.25,244.37c0,70.45-55.58,117.13-139.71,187.81-15.67,13.14-32.38,27.19-50,42.45a16.69,16.69,0,0,1-21.82,0c-20.84-18-39.68-33.76-57.82-49-8.49-7.17-16.71-14.11-24.62-20.91l252.4-252.4a4.17,4.17,0,0,0,.76.49C385.46,173.95,401.25,206.82,401.25,244.37Z"/><path class="cls-1" d="M299.62,229.06a16.68,16.68,0,0,1-11.79-28.47l62.25-62.25a16.68,16.68,0,1,1,23.59,23.59l-62.25,62.25A16.64,16.64,0,0,1,299.62,229.06Z"/><path class="cls-5" d="M428.6,166.81H361.87a16.68,16.68,0,0,1-16.68-16.68V83.4a16.67,16.67,0,0,1,4.89-11.79L416.8,4.89a16.68,16.68,0,0,1,28.48,11.79v50h50A16.68,16.68,0,0,1,507.11,95.2l-66.72,66.72A16.69,16.69,0,0,1,428.6,166.81Z"/><path class="cls-2" d="M287.83,224.17a16.67,16.67,0,0,0,23.59,0l62.25-62.25a16.67,16.67,0,0,0,0-23.59"/><path class="cls-6" d="M495.32,66.72h-50l-95.2,95.2a16.63,16.63,0,0,0,11.79,4.89H428.6a16.68,16.68,0,0,0,11.79-4.89L507.11,95.2a16.68,16.68,0,0,0-11.79-28.47Z"/><path class="cls-5" d="M83.86,511.54H17.14A16.68,16.68,0,0,1,.46,494.86V428.14a16.68,16.68,0,0,1,33.36,0v50h50a16.68,16.68,0,1,1,0,33.36Z"/><path class="cls-6" d="M100.54,494.86a16.68,16.68,0,0,0-16.68-16.68h-50L5.34,506.66a16.63,16.63,0,0,0,11.79,4.89H83.86A16.68,16.68,0,0,0,100.54,494.86Z"/></g></g></svg>