<svg xmlns="http://www.w3.org/2000/svg" viewBox="0 0 428.5 443.35"><defs><style>.cls-1{fill:#20d0c2;}.cls-2{fill:#1a91a1;}.cls-3{fill:#fff;}.cls-4{fill:#ecf0f1;}.cls-5{fill:#ff5b61;}.cls-6{fill:#ffba1b;}.cls-7{fill:#f5a209;}.cls-8{fill:#666;}.cls-9{fill:#807d7d;}</style></defs><title>Element 1</title><g id="Ebene_2" data-name="Ebene 2"><g id="Layer_1" data-name="Layer 1"><path class="cls-1" d="M154.17,77h223.5l50.72,223.87L409.8,301l-.44,79,19.14.1-.12,13.21H126.26c-28.59-2.22-26-53-27.57-66.65L124.14,99.11C124.24,89,134.76,77,154.17,77Z"/><path class="cls-2" d="M154.17,77h21.41l-19.48,316.3H126.26c-35-4-36.37-59.7-25-89.65L124.14,99.11C124.24,89,134.76,77,154.16,77Z"/><path class="cls-3" d="M130.15,300.86H422.58c-13.27,27.11-12.93,53.85,0,80.23H130.15C98.78,381.09,98.78,300.86,130.15,300.86Z"/><path class="cls-4" d="M108.89,322.92H414.75q-.27,1.2-.5,2.41h-306C108.48,324.51,108.67,323.71,108.89,322.92Zm304.44,8.44h0c-.1.8-.18,1.61-.25,2.41H107c.07-.81.17-1.61.27-2.41Zm-.56,8.44h0q0,1.2,0,2.41H106.64q0-1.2,0-2.41Zm.31,8.43h0q.11,1.21.25,2.41H107.25q-.16-1.2-.27-2.41Zm1.18,8.44h0q.23,1.2.5,2.41H108.9c-.21-.79-.41-1.6-.59-2.41h306Zm2.05,8.44h0q.35,1.2.74,2.41H112c-.37-.78-.73-1.58-1.07-2.41h305.4Zm2.92,8.44h0c.32.8.65,1.61,1,2.41H117.89a24.23,24.23,0,0,1-2.18-2.41H419.24Z"/><path class="cls-5" d="M219.11,342h45.7V443.35l-23-33.07-22.66,33.07V342Z"/><path class="cls-3" d="M77.88,218.87l309.8-110.82c34.7-2.88,45.09,67.72,22.33,74.38L107.34,296c-17.19,6.48-34-21.17-35.5-48.27-.8-14.39,3.12-14,19.51-20.38l-13.47-8.51h0Z"/><path class="cls-4" d="M419.76,171.87c-2,5.34-5.19,9.23-9.74,10.56L107.34,296c-5.26,2-10.49.76-15.25-2.66,8.59.86,13.28-.28,21.45-8Z"/><path class="cls-6" d="M281.2,146.17c23,3.32,39.45,57.94,27.95,74.12L267.32,236c7.59-25.62-8.95-68.32-31.93-73.42Z"/><path class="cls-7" d="M355.31,256.72l-46.16-36.43L267.32,236l34.93,40.6,16.14-24.12Z"/><path class="cls-4" d="M89.34,228.23l2-.85c12.65,2.56,34.84,47.9,10.53,58C84.59,292.5,76.54,255,77.17,242.56c7.41-5.31,15.42,17.09,12.85,17.6l-5.13,1S85,271,90,271.65l19.86-6.43s-1.61-28.9-20.54-37Z"/><path class="cls-4" d="M160.75,317.68H416.07a101,101,0,0,1,6.48-16.77l0-.05H130.14c-29,0-31.19,68.71-6.5,79-8.36-23.66-1.68-62.14,20-62.14h17.06Z"/><path class="cls-8" d="M258.16,67.52l2.52,43.95c-14.29,24.22-59.9,42.2-104.82,41.74-42.8-.43-85-18.19-96.63-40.55L59,69.6,154.62,96,258.16,67.53h0Z"/><path class="cls-9" d="M0,52.23,154.62,0,309.23,52.23,154.61,104.47Z"/><path class="cls-5" d="M55,159.16l-7.08,45.33c-.11.74,2.38,1.74,3.57.26a2.46,2.46,0,0,0,4.25-.19,2.23,2.23,0,0,0,4,.08c1.19,1.48,3.84.45,3.65-.79l-7-44.73a.7.7,0,0,0-1.32,0Z"/><path class="cls-3" d="M155.67,39a1.77,1.77,0,1,1,1,3.39L57.24,72.29V159a1.77,1.77,0,1,1-3.54,0V71h0A1.77,1.77,0,0,1,55,69.28L155.67,39h0Z"/><path class="cls-3" d="M55.6,164.93a7,7,0,1,0-7-7A7,7,0,0,0,55.6,164.93Z"/><path class="cls-4" d="M61.29,156.12a6.77,6.77,0,0,1-6.77,6.78h-.13a6.78,6.78,0,0,1-5.53-3,7,7,0,0,0,5.24,4.91,7.14,7.14,0,0,0,1.51.16,7,7,0,0,0,4.83-12.11,6.77,6.77,0,0,1,.86,3.3Z"/></g></g></svg>