<svg xmlns="http://www.w3.org/2000/svg" viewBox="0 0 452.32 337.72"><defs><style>.cls-1{fill:#646b79;}.cls-2{fill:#fbd303;}.cls-3{fill:#fcfcfd;}.cls-4{fill:#f0ba7a;}.cls-5{fill:#4f5565;}.cls-6{fill:#dededf;}.cls-7{fill:#f0582f;}.cls-8{fill:#d54232;}.cls-9{fill:#f1f3f7;}.cls-10{fill:#f7cfa2;}</style></defs><title>Element 1</title><g id="Ebene_2" data-name="Ebene 2"><g id="Layer_1" data-name="Layer 1"><rect class="cls-1" width="395.02" height="38.99"/><rect class="cls-2" x="9.16" width="8.48" height="38.99"/><rect class="cls-2" x="377.39" width="8.48" height="38.99"/><path class="cls-3" d="M26.45,39V253.29A15.27,15.27,0,0,0,42,268.55H353a15.49,15.49,0,0,0,15.6-15.26V39Z"/><rect class="cls-4" x="320.42" y="222.77" width="44.42" height="32.55"/><circle class="cls-5" cx="342.46" cy="172.59" r="50.18"/><polygon class="cls-6" points="313.64 243.79 342.46 245.49 371.29 243.79 364.84 337.72 320.42 337.72 313.64 243.79"/><polygon class="cls-7" points="336.02 265.49 327.54 319.07 342.46 337.72 357.72 319.07 349.25 265.49 336.02 265.49"/><path class="cls-5" d="M313.64,243.79c-2,.68-65.44,29.16-65.44,29.16l-15.26,64.76H342.8Z"/><polygon class="cls-1" points="313.64 243.79 300.76 249.56 281.43 279.4 299.74 285.16 283.46 304.15 320.42 337.72 342.46 337.72 313.64 243.79"/><path class="cls-5" d="M371.62,243.79c2,.68,65.44,29.16,65.44,29.16l15.26,64.76H342.46Z"/><polygon class="cls-1" points="371.62 243.79 384.17 249.56 403.84 279.4 385.53 285.16 401.8 304.15 364.84 337.72 342.46 337.72 371.62 243.79"/><polygon class="cls-8" points="345.85 245.49 339.07 245.49 327.54 257.02 336.02 265.49 349.25 265.49 357.72 257.02 345.85 245.49"/><polygon class="cls-9" points="313.64 243.79 319.75 232.94 342.46 245.49 325.85 267.53 313.64 243.79"/><polygon class="cls-9" points="371.29 243.79 365.18 232.94 342.46 245.49 359.08 267.53 371.29 243.79"/><path class="cls-5" d="M308.56,171.23s35.26,2,50.18-19.67c0,0,4.41,12.88,16.61,17.63v17.63h6.1c0-1.7.34-3.39.34-5.09,0-28.48-17.29-51.2-38.65-51.2s-38.65,23.06-38.65,51.2a25.67,25.67,0,0,0,.34,5.09h4.41v-15.6h-.68Z"/><path class="cls-10" d="M375,186.83V169.2c-12.21-5.09-16.61-17.63-16.61-17.63-14.92,21.7-50.18,19.67-50.18,19.67v15.6h-4.41c2,26.11,18.31,46.11,38.65,46.11,20,0,36.62-20.34,38.65-46.11Z"/><polygon class="cls-7" points="239.72 78.33 239.72 90.87 266.85 90.87 215.99 141.73 194.97 120.71 145.12 170.55 104.44 129.87 45.44 188.53 54.59 197.34 104.44 147.5 145.12 188.19 194.97 138.34 215.99 159.37 275.67 99.69 275.67 126.81 288.21 126.81 288.21 78.33 239.72 78.33"/></g></g></svg>